<?xml version="1.0" encoding="UTF-8" standalone="no"?>
<!-- Created with Inkscape (http://www.inkscape.org/) -->

<svg
   width="156.60745mm"
   height="49.173626mm"
   viewBox="0 0 156.60745 49.173626"
   version="1.1"
   id="svg5"
   inkscape:version="1.2 (dc2aedaf03, 2022-05-15)"
   sodipodi:docname="Systemy grafiki wektorowej.svg"
   xmlns:inkscape="http://www.inkscape.org/namespaces/inkscape"
   xmlns:sodipodi="http://sodipodi.sourceforge.net/DTD/sodipodi-0.dtd"
   xmlns="http://www.w3.org/2000/svg"
   xmlns:svg="http://www.w3.org/2000/svg">
  <sodipodi:namedview
     id="namedview7"
     pagecolor="#505050"
     bordercolor="#ffffff"
     borderopacity="1"
     inkscape:showpageshadow="0"
     inkscape:pageopacity="0"
     inkscape:pagecheckerboard="1"
     inkscape:deskcolor="#505050"
     inkscape:document-units="mm"
     showgrid="false"
     inkscape:zoom="1.0406414"
     inkscape:cx="298.37369"
     inkscape:cy="44.683983"
     inkscape:window-width="1920"
     inkscape:window-height="1017"
     inkscape:window-x="-8"
     inkscape:window-y="308"
     inkscape:window-maximized="1"
     inkscape:current-layer="layer1" />
  <defs
     id="defs2">
    <rect
       x="158.55608"
       y="293.0885"
       width="630.14478"
       height="228.14224"
       id="rect464" />
    <rect
       x="174.89215"
       y="243.51736"
       width="252.72876"
       height="152.65875"
       id="rect458" />
  </defs>
  <g
     inkscape:label="Warstwa 1"
     inkscape:groupmode="layer"
     id="layer1"
     transform="translate(-26.696277,-76.582984)">
    <rect
       style="fill:#ffffff;stroke:#ffffff;stroke-width:2.64583"
       id="rect448"
       width="153.96162"
       height="46.527798"
       x="28.019192"
       y="77.905899" />
    <text
       xml:space="preserve"
       transform="scale(0.26458333)"
       id="text456"
       style="font-size:24px;line-height:1.25;font-family:Arial;-inkscape-font-specification:Arial;white-space:pre;shape-inside:url(#rect458)" />
    <g
       aria-label="Systemy grafiki wektorowej"
       transform="matrix(0.26458333,0,0,0.26458333,-20.82143,-0.46607656)"
       id="text462"
       style="font-size:85.3333px;line-height:1.05;font-family:Arial;-inkscape-font-specification:Arial;white-space:pre;shape-inside:url(#rect464)">
      <path
         d="m 188.21236,341.79391 7.625,-0.66666 q 0.54166,4.58333 2.49999,7.54166 2,2.91666 6.16667,4.75 4.16666,1.79166 9.37499,1.79166 4.625,0 8.16667,-1.375 3.54166,-1.375 5.25,-3.74999 1.74999,-2.41667 1.74999,-5.25 0,-2.875 -1.66666,-5 -1.66667,-2.16667 -5.5,-3.625 -2.45833,-0.95833 -10.87499,-2.95833 -8.41667,-2.04167 -11.79167,-3.83333 -4.37499,-2.29167 -6.54166,-5.66667 -2.125,-3.41666 -2.125,-7.62499 0,-4.625 2.625,-8.625 2.625,-4.04167 7.66666,-6.125 5.04167,-2.08333 11.20833,-2.08333 6.79167,0 11.95833,2.20833 5.20833,2.16667 8,6.41667 2.79166,4.24999 3,9.62499 l -7.75,0.58334 q -0.625,-5.79167 -4.25,-8.75 -3.58333,-2.95833 -10.62499,-2.95833 -7.33334,0 -10.70833,2.70833 -3.33334,2.66666 -3.33334,6.45833 0,3.29167 2.375,5.41666 2.33334,2.125 12.16667,4.375 9.87499,2.20833 13.54166,3.875 5.33333,2.45833 7.87499,6.25 2.54167,3.75 2.54167,8.66666 0,4.875 -2.79167,9.20833 -2.79166,4.29167 -8.04166,6.70833 -5.20833,2.375 -11.75,2.375 -8.29166,0 -13.91666,-2.41667 -5.58333,-2.41666 -8.79166,-7.24999 -3.16666,-4.875 -3.33333,-11 z"
         style="text-align:center;text-anchor:middle"
         id="path637" />
      <path
         d="M 246.58733,378.46056 245.754,371.4189 q 2.45833,0.66667 4.29166,0.66667 2.5,0 4,-0.83334 1.5,-0.83333 2.45834,-2.33333 0.70833,-1.125 2.29166,-5.58333 0.20833,-0.625 0.66667,-1.83333 l -16.79166,-44.33332 h 8.08333 l 9.20833,25.62499 q 1.79166,4.875 3.20833,10.25 1.29167,-5.16667 3.08333,-10.08333 l 9.45833,-25.79166 h 7.5 l -16.83333,44.99998 q -2.70833,7.29167 -4.20833,10.04167 -2,3.70833 -4.58333,5.41666 -2.58333,1.75 -6.16667,1.75 -2.16666,0 -4.83333,-0.91667 z"
         style="text-align:center;text-anchor:middle"
         id="path634" />
      <path
         d="m 286.58732,348.21058 7.41666,-1.16667 q 0.625,4.45833 3.45833,6.83333 2.875,2.375 8,2.375 5.16666,0 7.66666,-2.08333 2.5,-2.125 2.5,-4.95833 0,-2.54167 -2.20833,-4 -1.54167,-1 -7.66667,-2.54167 -8.24999,-2.08333 -11.45832,-3.58333 -3.16667,-1.54167 -4.83334,-4.20833 -1.62499,-2.70833 -1.62499,-5.95833 0,-2.95833 1.33333,-5.45833 1.375,-2.54167 3.70833,-4.20833 1.75,-1.29167 4.75,-2.16667 3.04166,-0.91667 6.5,-0.91667 5.20833,0 9.12499,1.5 3.95833,1.5 5.83333,4.08333 1.875,2.54167 2.58333,6.83333 l -7.33333,1 q -0.5,-3.41666 -2.91666,-5.33333 -2.375,-1.91666 -6.75,-1.91666 -5.16666,0 -7.375,1.70833 -2.20833,1.70833 -2.20833,4 0,1.45833 0.91667,2.625 0.91666,1.20833 2.875,2 1.125,0.41666 6.62499,1.91666 7.95833,2.125 11.08333,3.5 3.16667,1.33333 4.95833,3.91667 1.79167,2.58333 1.79167,6.41666 0,3.75 -2.20833,7.08333 -2.16667,3.29167 -6.29167,5.125 -4.12499,1.79166 -9.33333,1.79166 -8.62499,0 -13.16666,-3.58333 -4.49999,-3.58333 -5.74999,-10.62499 z"
         style="text-align:center;text-anchor:middle"
         id="path631" />
      <path
         d="m 348.62896,354.71057 1.08333,6.625 q -3.16667,0.66667 -5.66666,0.66667 -4.08334,0 -6.33334,-1.29167 -2.24999,-1.29167 -3.16666,-3.375 -0.91667,-2.125 -0.91667,-8.87499 v -25.45833 h -5.49999 v -5.83333 h 5.49999 v -10.95833 l 7.45833,-4.49999 v 15.45832 h 7.54167 v 5.83333 h -7.54167 v 25.87499 q 0,3.20833 0.375,4.125 0.41667,0.91667 1.29167,1.45833 0.91667,0.54167 2.58333,0.54167 1.25,0 3.29167,-0.29167 z"
         style="text-align:center;text-anchor:middle"
         id="path628" />
      <path
         d="m 386.25395,347.16891 7.74999,0.95833 q -1.83333,6.79167 -6.79166,10.54167 -4.95833,3.74999 -12.66666,3.74999 -9.70833,0 -15.41666,-5.95833 -5.66667,-5.99999 -5.66667,-16.79166 0,-11.16666 5.75,-17.33332 5.75,-6.16667 14.91666,-6.16667 8.875,0 14.49999,6.04167 5.625,6.04166 5.625,16.99999 0,0.66667 -0.0417,2 h -32.99999 q 0.41667,7.29166 4.125,11.16666 3.70833,3.875 9.24999,3.875 4.125,0 7.04167,-2.16667 2.91666,-2.16666 4.625,-6.91666 z m -24.62499,-12.12499 h 24.70832 q -0.5,-5.58334 -2.83333,-8.375 -3.58333,-4.33333 -9.29167,-4.33333 -5.16666,0 -8.70833,3.45833 -3.49999,3.45833 -3.87499,9.25 z"
         style="text-align:center;text-anchor:middle"
         id="path625" />
      <path
         d="m 403.4206,361.4189 v -44.24998 h 6.70834 v 6.20833 q 2.08333,-3.25 5.54166,-5.20833 3.45833,-2 7.875,-2 4.91666,0 8.04166,2.04167 3.16667,2.04166 4.45833,5.70833 5.25,-7.75 13.66666,-7.75 6.58333,0 10.125,3.66667 3.54166,3.625 3.54166,11.20833 v 30.37498 h -7.45833 v -27.87498 q 0,-4.5 -0.75,-6.45833 -0.70833,-2 -2.625,-3.20834 -1.91666,-1.20833 -4.49999,-1.20833 -4.66667,0 -7.75,3.125 -3.08333,3.08333 -3.08333,9.91666 v 25.70832 h -7.5 v -28.74998 q 0,-5 -1.83333,-7.5 -1.83333,-2.5 -6,-2.5 -3.16666,0 -5.875,1.66667 -2.66666,1.66666 -3.875,4.87499 -1.20833,3.20834 -1.20833,9.25 v 22.95832 z"
         style="text-align:center;text-anchor:middle"
         id="path622" />
      <path
         d="m 474.17057,378.46056 -0.83333,-7.04166 q 2.45833,0.66667 4.29166,0.66667 2.5,0 4,-0.83334 1.5,-0.83333 2.45833,-2.33333 0.70833,-1.125 2.29167,-5.58333 0.20833,-0.625 0.66666,-1.83333 L 470.2539,317.16892 h 8.08333 l 9.20833,25.62499 q 1.79167,4.875 3.20834,10.25 1.29166,-5.16667 3.08333,-10.08333 l 9.45833,-25.79166 h 7.49999 l -16.83332,44.99998 q -2.70833,7.29167 -4.20833,10.04167 -2,3.70833 -4.58334,5.41666 -2.58333,1.75 -6.16666,1.75 -2.16667,0 -4.83333,-0.91667 z"
         style="text-align:center;text-anchor:middle"
         id="path619" />
      <path
         d="m 539.50387,365.08557 7.29167,1.08333 q 0.45833,3.375 2.54166,4.91667 2.79167,2.08333 7.625,2.08333 5.20833,0 8.04166,-2.08333 2.83333,-2.08334 3.83333,-5.83333 0.58334,-2.29167 0.54167,-9.625 -4.91666,5.79166 -12.24999,5.79166 -9.125,0 -14.125,-6.58333 -5,-6.58333 -5,-15.79166 0,-6.33333 2.29167,-11.66666 2.29166,-5.375 6.625,-8.29166 4.37499,-2.91667 10.24999,-2.91667 7.83333,0 12.91666,6.33333 v -5.33333 h 6.91667 v 38.24999 q 0,10.33333 -2.125,14.62499 -2.08333,4.33333 -6.66667,6.83333 -4.54166,2.5 -11.20832,2.5 -7.91667,0 -12.79167,-3.58333 -4.87499,-3.54167 -4.70833,-10.70833 z m 6.20833,-26.58332 q 0,8.70833 3.45834,12.70833 3.45833,3.99999 8.66666,3.99999 5.16666,0 8.66666,-3.95833 3.5,-4 3.5,-12.49999 0,-8.125 -3.625,-12.25 -3.58333,-4.125 -8.66666,-4.125 -5,0 -8.5,4.08334 -3.5,4.04166 -3.5,12.04166 z"
         style="text-align:center;text-anchor:middle"
         id="path616" />
      <path
         d="m 588.25385,361.4189 v -44.24998 h 6.75 v 6.70833 q 2.58333,-4.70833 4.75,-6.20833 2.20833,-1.5 4.83333,-1.5 3.79166,0 7.70833,2.41667 l -2.58333,6.95833 q -2.75,-1.625 -5.5,-1.625 -2.45833,0 -4.41667,1.5 -1.95833,1.45833 -2.79166,4.08333 -1.25,4 -1.25,8.75 v 23.16665 z"
         style="text-align:center;text-anchor:middle"
         id="path613" />
      <path
         d="m 645.62883,355.96057 q -4.16667,3.54167 -8.04166,5 -3.83334,1.45833 -8.25,1.45833 -7.29166,0 -11.20833,-3.54166 -3.91666,-3.58333 -3.91666,-9.125 0,-3.25 1.45833,-5.91666 1.5,-2.70833 3.875,-4.33333 2.41666,-1.625 5.41666,-2.45834 2.20833,-0.58333 6.66667,-1.125 9.08332,-1.08333 13.37499,-2.58333 0.0417,-1.54166 0.0417,-1.95833 0,-4.58333 -2.125,-6.45833 -2.875,-2.54167 -8.54167,-2.54167 -5.29166,0 -7.83333,1.875 -2.49999,1.83334 -3.70833,6.54167 l -7.33333,-1 q 1,-4.70833 3.29167,-7.58333 2.29166,-2.91667 6.62499,-4.45833 4.33334,-1.58334 10.04167,-1.58334 5.66666,0 9.20833,1.33334 3.54166,1.33333 5.20833,3.37499 1.66666,2 2.33333,5.08334 0.375,1.91666 0.375,6.91666 v 10 q 0,10.45832 0.45833,13.24999 0.5,2.75 1.91667,5.29166 h -7.83333 q -1.16667,-2.33333 -1.5,-5.45833 z m -0.625,-16.74999 q -4.08333,1.66667 -12.25,2.83333 -4.62499,0.66667 -6.54166,1.5 -1.91666,0.83333 -2.95833,2.45833 -1.04167,1.58334 -1.04167,3.54167 0,3 2.25,5 2.29167,2 6.66667,2 4.33333,0 7.70833,-1.875 3.37499,-1.91667 4.95833,-5.20833 1.20833,-2.54167 1.20833,-7.5 z"
         style="text-align:center;text-anchor:middle"
         id="path610" />
      <path
         d="m 666.00382,361.4189 v -38.41665 h -6.625 v -5.83333 h 6.625 v -4.70833 q 0,-4.45833 0.79167,-6.625 1.08333,-2.91666 3.79166,-4.70833 2.75,-1.83333 7.66667,-1.83333 3.16666,0 6.99999,0.75 l -1.125,6.54166 q -2.33333,-0.41666 -4.41666,-0.41666 -3.41667,0 -4.83333,1.45833 -1.41667,1.45833 -1.41667,5.45833 v 4.08333 h 8.625 v 5.83333 h -8.625 v 38.41665 z"
         style="text-align:center;text-anchor:middle"
         id="path607" />
      <path
         d="m 687.96213,308.96059 v -8.62499 h 7.5 v 8.62499 z m 0,52.45831 v -44.24998 h 7.5 v 44.24998 z"
         style="text-align:center;text-anchor:middle"
         id="path604" />
      <path
         d="m 706.92045,361.4189 v -61.0833 h 7.49999 v 34.83332 l 17.75,-18 h 9.70833 l -16.91666,16.41666 18.62499,27.83332 h -9.25 l -14.62499,-22.62499 -5.29167,5.08333 v 17.54166 z"
         style="text-align:center;text-anchor:middle"
         id="path601" />
      <path
         d="m 749.58713,308.96059 v -8.62499 h 7.5 v 8.62499 z m 0,52.45831 v -44.24998 h 7.5 v 44.24998 z"
         style="text-align:center;text-anchor:middle"
         id="path598" />
      <path
         d="M 274.00399,451.01888 260.46233,406.7689 h 7.75 l 7.04166,25.54165 2.625,9.5 q 0.16666,-0.70833 2.29166,-9.125 l 7.04167,-25.91665 h 7.70833 l 6.62499,25.66665 2.20834,8.45833 2.54166,-8.54166 7.58333,-25.58332 h 7.29167 l -13.83333,44.24998 h -7.79166 l -7.04167,-26.49999 -1.70833,-7.54166 -8.95833,34.04165 z"
         style="text-align:center;text-anchor:middle"
         id="path595" />
      <path
         d="m 357.75395,436.76889 7.75,0.95833 q -1.83333,6.79166 -6.79166,10.54166 -4.95833,3.75 -12.66666,3.75 -9.70833,0 -15.41667,-5.95833 -5.66666,-6 -5.66666,-16.79166 0,-11.16666 5.75,-17.33333 5.75,-6.16666 14.91666,-6.16666 8.87499,0 14.49999,6.04166 5.625,6.04167 5.625,17 0,0.66666 -0.0417,1.99999 H 332.7123 q 0.41666,7.29167 4.125,11.16667 3.70833,3.875 9.24999,3.875 4.125,0 7.04167,-2.16667 2.91666,-2.16667 4.62499,-6.91666 z m -24.62499,-12.125 h 24.70833 q -0.5,-5.58333 -2.83334,-8.375 -3.58333,-4.33333 -9.29166,-4.33333 -5.16666,0 -8.70833,3.45833 -3.5,3.45834 -3.875,9.25 z"
         style="text-align:center;text-anchor:middle"
         id="path592" />
      <path
         d="m 374.96228,451.01888 v -61.08331 h 7.49999 v 34.83332 l 17.74999,-17.99999 h 9.70833 l -16.91666,16.41666 18.625,27.83332 h -9.25 l -14.62499,-22.62499 -5.29167,5.08333 v 17.54166 z"
         style="text-align:center;text-anchor:middle"
         id="path589" />
      <path
         d="m 433.96226,444.31055 1.08333,6.625 q -3.16666,0.66666 -5.66666,0.66666 -4.08333,0 -6.33333,-1.29166 -2.25,-1.29167 -3.16667,-3.375 -0.91667,-2.125 -0.91667,-8.875 v -25.45832 h -5.49999 v -5.83333 h 5.49999 v -10.95833 l 7.45833,-4.5 v 15.45833 h 7.54167 v 5.83333 h -7.54167 v 25.87499 q 0,3.20833 0.375,4.125 0.41667,0.91666 1.29167,1.45833 0.91667,0.54167 2.58333,0.54167 1.25,0 3.29167,-0.29167 z"
         style="text-align:center;text-anchor:middle"
         id="path586" />
      <path
         d="m 438.50391,428.89389 q 0,-12.29166 6.83333,-18.20833 5.70833,-4.91666 13.91666,-4.91666 9.125,0 14.91666,6 5.79167,5.95833 5.79167,16.49999 0,8.54166 -2.58333,13.45833 -2.54167,4.87499 -7.45833,7.58333 -4.875,2.70833 -10.66667,2.70833 -9.29166,0 -15.04166,-5.95833 -5.70833,-5.95833 -5.70833,-17.16666 z m 7.70833,0 q 0,8.5 3.70833,12.74999 3.70834,4.20834 9.33333,4.20834 5.58334,0 9.29167,-4.25 3.70833,-4.25 3.70833,-12.95833 0,-8.20833 -3.75,-12.41666 -3.70833,-4.25 -9.25,-4.25 -5.62499,0 -9.33333,4.20833 -3.70833,4.20833 -3.70833,12.70833 z"
         style="text-align:center;text-anchor:middle"
         id="path583" />
      <path
         d="M 488.67056,451.01888 V 406.7689 h 6.75 v 6.70833 q 2.58333,-4.70833 4.74999,-6.20833 2.20834,-1.5 4.83333,-1.5 3.79167,0 7.70833,2.41666 l -2.58333,6.95833 q -2.75,-1.62499 -5.5,-1.62499 -2.45833,0 -4.41666,1.49999 -1.95833,1.45834 -2.79167,4.08334 -1.25,3.99999 -1.25,8.74999 v 23.16666 z"
         style="text-align:center;text-anchor:middle"
         id="path580" />
      <path
         d="m 514.37888,428.89389 q 0,-12.29166 6.83333,-18.20833 5.70833,-4.91666 13.91666,-4.91666 9.125,0 14.91666,6 5.79167,5.95833 5.79167,16.49999 0,8.54166 -2.58333,13.45833 -2.54167,4.87499 -7.45833,7.58333 -4.875,2.70833 -10.66667,2.70833 -9.29166,0 -15.04166,-5.95833 -5.70833,-5.95833 -5.70833,-17.16666 z m 7.70833,0 q 0,8.5 3.70833,12.74999 3.70834,4.20834 9.33333,4.20834 5.58333,0 9.29167,-4.25 3.70833,-4.25 3.70833,-12.95833 0,-8.20833 -3.75,-12.41666 -3.70833,-4.25 -9.25,-4.25 -5.62499,0 -9.33333,4.20833 -3.70833,4.20833 -3.70833,12.70833 z"
         style="text-align:center;text-anchor:middle"
         id="path577" />
      <path
         d="M 572.79552,451.01888 559.25386,406.7689 h 7.75 l 7.04166,25.54165 2.625,9.5 q 0.16667,-0.70833 2.29167,-9.125 l 7.04166,-25.91665 h 7.70833 l 6.625,25.66665 2.20833,8.45833 2.54167,-8.54166 7.58333,-25.58332 h 7.29166 l -13.83333,44.24998 h -7.79166 l -7.04166,-26.49999 -1.70834,-7.54166 -8.95833,34.04165 z"
         style="text-align:center;text-anchor:middle"
         id="path574" />
      <path
         d="m 656.54548,436.76889 7.75,0.95833 q -1.83333,6.79166 -6.79166,10.54166 -4.95833,3.75 -12.66666,3.75 -9.70833,0 -15.41666,-5.95833 -5.66667,-6 -5.66667,-16.79166 0,-11.16666 5.75,-17.33333 5.75,-6.16666 14.91666,-6.16666 8.875,0 14.49999,6.04166 5.625,6.04167 5.625,17 0,0.66666 -0.0417,1.99999 H 631.5038 q 0.41666,7.29167 4.125,11.16667 3.70833,3.875 9.24999,3.875 4.125,0 7.04167,-2.16667 2.91666,-2.16667 4.62499,-6.91666 z m -24.62499,-12.125 h 24.70833 q -0.5,-5.58333 -2.83333,-8.375 -3.58334,-4.33333 -9.29167,-4.33333 -5.16666,0 -8.70833,3.45833 -3.5,3.45834 -3.875,9.25 z"
         style="text-align:center;text-anchor:middle"
         id="path571" />
      <path
         d="m 673.67048,398.6439 v -8.70833 h 7.49999 v 8.70833 z m -9.5,69.54164 1.41667,-6.375 q 2.25,0.58333 3.54166,0.58333 2.29167,0 3.41667,-1.54166 1.125,-1.5 1.125,-7.58333 V 406.7689 h 7.49999 v 46.66665 q 0,8.16666 -2.125,11.37499 -2.70833,4.16667 -8.99999,4.16667 -3.04167,0 -5.875,-0.79167 z"
         style="text-align:center;text-anchor:middle"
         id="path568" />
    </g>
  </g>
</svg>
